<?xml version="1.0" encoding="UTF-8" standalone="no"?>
<!-- Generator: Adobe Illustrator 18.1.1, SVG Export Plug-In . SVG Version: 6.00 Build 0)  -->

<svg
   xmlns:dc="http://purl.org/dc/elements/1.1/"
   xmlns:cc="http://creativecommons.org/ns#"
   xmlns:rdf="http://www.w3.org/1999/02/22-rdf-syntax-ns#"
   xmlns:svg="http://www.w3.org/2000/svg"
   xmlns="http://www.w3.org/2000/svg"
   xmlns:sodipodi="http://sodipodi.sourceforge.net/DTD/sodipodi-0.dtd"
   xmlns:inkscape="http://www.inkscape.org/namespaces/inkscape"
   version="1.1"
   id="Camada_1"
   x="0px"
   y="0px"
   viewBox="0 0 42 42"
   enable-background="new 0 0 42 42"
   xml:space="preserve"
   inkscape:version="0.91 r13725"
   sodipodi:docname="servidores_ativa_selected.svg"><metadata
     id="metadata23"><rdf:RDF><cc:Work
         rdf:about=""><dc:format>image/svg+xml</dc:format><dc:type
           rdf:resource="http://purl.org/dc/dcmitype/StillImage" /></cc:Work></rdf:RDF></metadata><defs
     id="defs21"><filter
       style="color-interpolation-filters:sRGB;"
       inkscape:label="Color Shift"
       id="filter3351"><feColorMatrix
         type="hueRotate"
         values="360"
         result="color1"
         id="feColorMatrix3353" /><feColorMatrix
         type="saturate"
         values="0.5"
         result="color2"
         id="feColorMatrix3355" /></filter></defs><sodipodi:namedview
     pagecolor="#ffffff"
     bordercolor="#666666"
     borderopacity="1"
     objecttolerance="10"
     gridtolerance="10"
     guidetolerance="10"
     inkscape:pageopacity="0"
     inkscape:pageshadow="2"
     inkscape:window-width="640"
     inkscape:window-height="480"
     id="namedview19"
     showgrid="false"
     inkscape:zoom="5.6190476"
     inkscape:cx="2.1355932"
     inkscape:cy="21"
     inkscape:window-x="0"
     inkscape:window-y="40"
     inkscape:window-maximized="0"
     inkscape:current-layer="Camada_1" /><g
     id="g3"
     style="filter:url(#filter3351)"><path
       fill="none"
       stroke="#D60E33"
       stroke-width="0.75"
       stroke-linecap="round"
       stroke-linejoin="round"
       stroke-miterlimit="10"
       d="   M29.1,26.9v-1.1c0-0.3-0.2-0.4-0.4-0.5c-2.5-1-5.3-2.1-5.6-2.9v-0.8c0.5-0.5,1-1.2,1.2-2.1c0.6-0.4,0.7-1.2,0.3-1.8V16   c0-1.8-1-3.1-3.4-3.1c-2.3,0-3.4,1.2-3.4,3.1v1.8c-0.5,0.6-0.3,1.4,0.3,1.8c0.3,0.9,0.7,1.6,1.2,2.1v0.8c-0.3,0.7-3.1,1.9-5.6,2.9   c-0.2,0.1-0.3,0.3-0.3,0.5v1.1"
       id="path5" /><path
       fill="none"
       stroke="#D60E33"
       stroke-width="0.75"
       stroke-linecap="round"
       stroke-linejoin="round"
       d="M23.2,0.1h-4   c-0.7,0-1.5,0.6-1.3,1.4l0.8,6c0.1,0.6,0.7,1,1.3,1h2.4c0.7,0,1.2-0.4,1.3-1l0.8-6C24.7,0.7,23.9,0.1,23.2,0.1z"
       id="path7" /><path
       fill="none"
       stroke="#D60E33"
       stroke-width="0.75"
       stroke-linecap="round"
       stroke-linejoin="round"
       d="M14,7.3h-3   c-1.8,0-3.3,1.3-3.3,3.1v28.2c0,1.8,1.6,3,3.3,3h20.4c1.8,0,3.3-1.1,3.3-3V10.4c0-1.8-1.6-3.2-3.3-3.2h-3"
       id="path9" /><line
       fill="none"
       stroke="#D60E33"
       stroke-width="0.75"
       stroke-linecap="round"
       stroke-linejoin="round"
       x1="22.3"
       y1="36.1"
       x2="29.1"
       y2="36.1"
       id="line11" /><line
       fill="none"
       stroke="#D60E33"
       stroke-width="0.75"
       stroke-linecap="round"
       stroke-linejoin="round"
       x1="13.3"
       y1="36.1"
       x2="16.9"
       y2="36.1"
       id="line13" /><line
       fill="none"
       stroke="#D60E33"
       stroke-width="0.75"
       stroke-linecap="round"
       stroke-linejoin="round"
       x1="7.7"
       y1="30.2"
       x2="34.6"
       y2="30.2"
       id="line15" /><line
       fill="none"
       stroke="#D60E33"
       stroke-width="0.75"
       stroke-linecap="round"
       stroke-linejoin="round"
       stroke-miterlimit="10"
       x1="21.2"
       y1="3.8"
       x2="21.2"
       y2="3.8"
       id="line17" /></g></svg>